<svg width="530" height="152" viewBox="0 0 530 152" fill="none" xmlns="http://www.w3.org/2000/svg">
<g clip-path="url(#clip0_240_2975)">
<path d="M198.1 62.9C195.233 60.8333 192.767 59.3333 190.7 58.4C188.633 57.4 186.233 56.9 183.5 56.9C178.033 56.9 173.333 58.3 169.4 61.1C166.4 63.3 164.167 66.1667 162.7 69.7C161.233 73.2333 160.5 77.2 160.5 81.6C160.5 85.8 161.467 89.5 163.4 92.7C165.333 95.8333 167.833 98.2333 170.9 99.9C173.967 101.567 177.167 102.4 180.5 102.4C183.833 102.4 186.7 101.9 189.1 100.9C191.567 99.8333 193.533 98.4667 195 96.8C197.267 93.9333 198.4 90.1333 198.4 85.4C198.4 84.7333 197.867 84.2667 196.8 84C195.733 83.7333 194.2 83.6 192.2 83.6L185 83.7C183.067 83.7 181.533 83.3333 180.4 82.6C179.267 81.8667 178.7 80.9333 178.7 79.8C178.7 78.2 179.233 77.0333 180.3 76.3C181.367 75.5 182.8 75.1 184.6 75.1C186.733 75.1 189.6 75.2333 193.2 75.5C196.8 75.7667 199.4 75.9 201 75.9C203.333 75.9 205.2 76.6333 206.6 78.1C208.067 79.5667 208.8 81.7 208.8 84.5C208.8 87.1 208.233 90.1333 207.1 93.6C205.967 97.0667 204.367 100.167 202.3 102.9C200.3 105.567 197.333 107.6 193.4 109C189.533 110.333 185.233 111 180.5 111C176.567 111 172.767 110.367 169.1 109.1C165.433 107.833 162.367 106.067 159.9 103.8C156.833 100.933 154.4 97.5333 152.6 93.6C150.867 89.6 150 85.6333 150 81.7C150 75.9667 151.333 70.4 154 65C156.733 59.5333 160.4 55.3 165 52.3C167 50.9667 169.8 49.8667 173.4 49C177 48.1333 180.3 47.7 183.3 47.7C187.967 47.7 192.067 48.4333 195.6 49.9C199.133 51.3 201.833 53.3333 203.7 56C204.5 57.2 204.9 58.2667 204.9 59.2C204.9 60.2667 204.433 61.2667 203.5 62.2C202.567 63.1333 201.633 63.6 200.7 63.6C200.3 63.6 199.833 63.5333 199.3 63.4C198.767 63.2667 198.367 63.1 198.1 62.9ZM258.943 78.9C259.476 79.8333 259.91 81.2 260.243 83C260.576 84.7333 260.743 86.3 260.743 87.7C260.743 90.3 260.176 94 259.043 98.8C254.443 107.2 247.643 111.4 238.643 111.4C235.31 111.4 231.91 110.3 228.443 108.1C224.976 105.9 222.576 103.367 221.243 100.5C219.443 94.7667 218.543 91.1333 218.543 89.6C218.543 86.9333 219.11 84.1 220.243 81.1C221.443 78.1 222.943 75.5 224.743 73.3C225.876 71.7667 227.91 70.4667 230.843 69.4C233.776 68.2667 236.443 67.7 238.843 67.7C243.51 67.7 247.476 68.6 250.743 70.4C254.01 72.1333 256.743 74.9667 258.943 78.9ZM250.243 95C250.576 94.1333 250.743 91.9 250.743 88.3C250.743 86.3667 250.376 84.4667 249.643 82.6C248.976 80.7333 247.976 79.1333 246.643 77.8C246.51 77.6667 246.143 77.4667 245.543 77.2C244.943 76.8667 244.11 76.5667 243.043 76.3C242.043 75.9667 240.876 75.8 239.543 75.8C235.81 75.8 233.076 77.3 231.343 80.3C229.61 83.3 228.743 86.7 228.743 90.5C228.743 91.1667 228.91 92.4333 229.243 94.3C229.643 96.1667 229.976 97.3333 230.243 97.8C230.443 98.2667 230.943 98.9333 231.743 99.8C232.61 100.6 233.643 101.333 234.843 102C236.11 102.6 237.41 102.9 238.743 102.9C241.743 102.9 244.143 102.2 245.943 100.8C247.743 99.3333 249.176 97.4 250.243 95ZM317.315 93.8C317.315 96.9333 316.648 99.4667 315.315 101.4C313.982 103.333 311.682 105.233 308.415 107.1C306.215 108.433 303.682 109.467 300.815 110.2C297.948 110.867 295.048 111.2 292.115 111.2C290.315 111.2 288.215 110.867 285.815 110.2C283.482 109.467 281.582 108.767 280.115 108.1L278.415 106.6C275.415 104.133 273.315 102.167 272.115 100.7C270.982 99.1667 270.415 97.3 270.415 95.1C270.415 93.3667 270.815 92.0667 271.615 91.2C272.415 90.3333 273.715 89.9 275.515 89.9C276.448 89.9 277.315 90.2 278.115 90.8C278.915 91.4 279.615 92.2333 280.215 93.3C281.882 96.2333 283.848 98.4 286.115 99.8C288.448 101.133 291.182 101.8 294.315 101.8C297.248 101.8 300.215 100.9 303.215 99.1C305.682 97.5667 306.915 96.0667 306.915 94.6C306.915 92 305.748 89.8333 303.415 88.1C301.148 86.3667 297.882 84.8 293.615 83.4C291.015 82.4667 287.115 80.7333 281.915 78.2C278.382 76.4667 275.748 74.3333 274.015 71.8C272.282 69.2667 271.415 66.6 271.415 63.8C271.415 61.2667 272.282 58.8 274.015 56.4C275.815 53.9333 277.982 52.1 280.515 50.9C281.848 50.2333 283.982 49.5333 286.915 48.8C289.848 48 292.048 47.6 293.515 47.6C296.248 47.6 298.615 47.9333 300.615 48.6C302.615 49.2 304.582 50.0667 306.515 51.2C309.448 52.8667 311.615 54.3667 313.015 55.7C314.415 57.0333 315.115 58.7 315.115 60.7C315.115 61.9 314.648 62.9667 313.715 63.9C312.848 64.8333 311.315 65.3 309.115 65.3C308.582 65.3 308.048 65.0667 307.515 64.6C306.982 64.1333 306.315 63.4333 305.515 62.5C304.448 61.1 303.415 60.1667 302.415 59.7C302.148 59.6333 301.048 59.2 299.115 58.4C297.248 57.6 294.915 57.2 292.115 57.2C289.448 57.2 287.082 57.8333 285.015 59.1C282.948 60.3 281.915 62.0667 281.915 64.4C281.915 66.7333 284.015 68.6333 288.215 70.1C292.682 71.8333 296.382 73.3333 299.315 74.6C302.315 75.8667 305.215 77.3667 308.015 79.1C311.215 81.0333 313.548 83.0667 315.015 85.2C316.548 87.3333 317.315 90.2 317.315 93.8ZM356.067 47.4C360.534 47.4 364.601 47.9667 368.267 49.1C371.934 50.1667 374.934 51.7667 377.267 53.9C381.467 57.7 384.401 61.8667 386.067 66.4C387.801 70.8667 388.667 76.6 388.667 83.6C388.667 85.0667 388.467 86.4 388.067 87.6C387.734 88.8 387.167 90.3333 386.367 92.2C385.367 94.2667 384.767 95.9 384.567 97.1C383.234 99.4333 381.034 101.667 377.967 103.8C374.967 105.933 371.701 107.667 368.167 109C364.634 110.333 361.534 111 358.867 111C346.001 111 336.834 106.6 331.367 97.8C329.834 95.3333 328.634 92.7667 327.767 90.1C326.967 87.4333 326.567 84.8333 326.567 82.3C326.567 75.5 327.767 69.6 330.167 64.6C332.634 59.5333 336.034 55.6 340.367 52.8C342.967 51.2667 345.667 50 348.467 49C351.334 47.9333 353.867 47.4 356.067 47.4ZM336.967 82.6C336.967 86.2 337.767 89.1667 339.367 91.5C341.034 93.8333 343.567 96.3667 346.967 99.1C349.767 100.167 351.667 100.867 352.667 101.2C353.667 101.467 354.801 101.6 356.067 101.6C362.801 101.6 368.167 99.7667 372.167 96.1C376.167 92.4333 378.167 87.4 378.167 81C378.167 75.9333 377.601 71.9333 376.467 69C375.334 66.0667 373.301 63.4333 370.367 61.1C368.834 59.8333 366.867 58.9 364.467 58.3C362.134 57.7 359.601 57.4 356.867 57.4C352.734 57.4 349.167 58.6333 346.167 61.1C343.167 63.5 340.867 66.6333 339.267 70.5C337.734 74.3667 336.967 78.4 336.967 82.6ZM466.228 53.2C466.628 51.8 467.228 50.6667 468.028 49.8C468.828 48.8667 469.695 48.4 470.628 48.4C472.895 48.4 474.528 48.8333 475.528 49.7C476.528 50.5667 477.028 52.0667 477.028 54.2C477.028 54.8 476.561 56.5 475.628 59.3C473.561 65.6333 471.295 73.4667 468.828 82.8C468.228 84.9333 467.728 86.8 467.328 88.4C466.995 90 466.695 91.3333 466.428 92.4C464.828 99.2667 463.428 104.433 462.228 107.9C461.828 108.9 461.128 109.7 460.128 110.3C459.128 110.833 458.061 111.1 456.928 111.1C455.795 111.1 454.661 110.867 453.528 110.4C452.461 109.867 451.695 109.267 451.228 108.6C449.628 105.467 447.228 99.8 444.028 91.6C440.895 83.4 438.428 76.4333 436.628 70.7C433.495 78.7667 430.228 88.2333 426.828 99.1C425.495 103.433 424.561 106.367 424.028 107.9C423.561 108.9 422.895 109.7 422.028 110.3C421.161 110.833 420.195 111.1 419.128 111.1C417.928 111.1 416.761 110.867 415.628 110.4C414.495 109.867 413.728 109.267 413.328 108.6C412.461 107.133 411.528 104.867 410.528 101.8C409.595 98.7333 408.328 94.4333 406.728 88.9L404.228 80.4C402.495 74.8667 400.995 69.2 399.728 63.4C398.461 57.6 397.828 54.1333 397.828 53C397.828 51.6 398.528 50.5 399.928 49.7C401.328 48.8333 402.728 48.4 404.128 48.4C404.928 48.4 405.761 48.6667 406.628 49.2C407.495 49.6667 408.061 50.5 408.328 51.7C410.661 64.1667 414.095 78.6333 418.628 95.1C420.495 90.5 423.228 82.4 426.828 70.8C427.295 69.2667 427.995 67 428.928 64C429.928 61 430.761 58.5 431.428 56.5C431.695 55.5 432.361 54.7 433.428 54.1C434.561 53.5 435.695 53.2 436.828 53.2C438.295 53.2 439.495 53.5667 440.428 54.3C441.361 55.0333 441.961 55.8333 442.228 56.7C442.361 57.1 443.728 61.7 446.328 70.5C448.928 79.3 451.995 87.5 455.528 95.1C456.861 91.1667 458.461 84.8667 460.328 76.2L461.828 69.6C463.628 62.5333 465.095 57.0667 466.228 53.2ZM498.575 105.5C498.575 107.167 497.908 108.733 496.575 110.2C495.242 111.6 493.775 112.3 492.175 112.3C490.308 112.3 488.608 111.8 487.075 110.8C485.542 109.733 484.775 108.4 484.775 106.8C484.775 104.267 485.242 102.4 486.175 101.2C487.175 100 488.642 99.4 490.575 99.4C492.842 99.4 494.742 99.9667 496.275 101.1C497.808 102.167 498.575 103.633 498.575 105.5Z" fill="black"/>
</g>
<path d="M102.372 41.4653C94.6394 35.433 84.9607 31.793 74.4374 31.6332C48.7345 31.2429 27.5574 51.7865 27.1671 77.4894C26.7768 103.192 47.3203 124.369 73.0233 124.76C98.7262 125.15 115.644 113.123 120.299 85.1818" stroke="#71DD8C" stroke-width="5.5" stroke-linecap="round" stroke-linejoin="round"/>
<path d="M74.2253 45.6028C56.2053 45.3291 41.4097 59.6821 41.1361 77.7021C40.8625 95.7221 55.2148 110.518 73.2347 110.791C91.2547 111.065 104.648 101.631 107.814 82.0118" stroke="#71DD8C" stroke-width="5.5" stroke-linecap="round" stroke-linejoin="round"/>
<path d="M120.3 50.2559L96.3945 73.7264L87.2877 60.3147L69.0742 78.197" stroke="#71DD8C" stroke-width="5.5" stroke-linecap="round" stroke-linejoin="round"/>
<path d="M110.986 50.2559H120.3V59.5696" stroke="#71DD8C" stroke-width="5.5" stroke-linecap="round" stroke-linejoin="round"/>
<defs>
<clipPath id="clip0_240_2975">
<rect width="530" height="152" rx="10" fill="white"/>
</clipPath>
</defs>
</svg>
